<?xml version="1.0" encoding="utf-8"?>
<!-- Generator: Adobe Illustrator 27.5.0, SVG Export Plug-In . SVG Version: 6.00 Build 0)  -->
<svg version="1.1" id="Layer_1" xmlns="http://www.w3.org/2000/svg" xmlns:xlink="http://www.w3.org/1999/xlink" x="0px" y="0px"
	 viewBox="0 0 209.5 27.2" style="enable-background:new 0 0 209.5 27.2;" xml:space="preserve">
<style type="text/css">
	.st0{fill:#1068B2;}
	.st1{fill:#FFFFFF;}
	.st2{fill:#FAA733;}
	.st3{fill:#384A5E;}
	.st4{fill:#EF6725;}
	.st5{fill:#E32229;}
	.st6{fill:#F89F20;}
	.st7{fill:#2F70B6;}
	.st8{fill:#231F20;}
	.st9{fill:#557EBF;}
	.st10{fill:#36A852;}
	.st11{fill:#F8BB16;}
	.st12{fill:#E94435;}
</style>
<g id="Group_1567" transform="translate(0 0)">
	<path id="Rectangle_128" class="st0" d="M5.9,1.3h26.8c2.2,0,4,1.8,4,4v16.5c0,2.2-1.8,4-4,4H5.9c-2.2,0-4-1.8-4-4V5.3
		C1.9,3.1,3.7,1.3,5.9,1.3z"/>
	<g id="Group_356" transform="translate(6.302 9.019)">
		<g id="Group_97" transform="translate(0 0)">
			<path id="Path_65" class="st1" d="M11.6,8.4H9.8l1.1-7h1.8L11.6,8.4z"/>
			<path id="Path_66" class="st1" d="M8.2,1.5L6.5,6.3l-0.2-1l0,0L5.7,2.1C5.6,1.7,5.2,1.4,4.8,1.5H2v0.1C2.6,1.7,3.2,2,3.8,2.4
				l1.6,6.1h1.9l2.9-7H8.2z"/>
			<path id="Path_67" class="st1" d="M22.5,8.4h1.7l-1.5-7h-1.5c-0.4,0-0.7,0.2-0.8,0.5l-2.7,6.5h1.9l0.4-1h2.3L22.5,8.4z M20.5,6
				l1-2.6L22,6H20.5z"/>
			<path id="Path_68" class="st1" d="M17.9,3.1l0.3-1.5c-0.5-0.2-1.1-0.3-1.6-0.3c-0.9,0-3,0.4-3,2.3c0,1.8,2.5,1.8,2.5,2.8
				s-2.3,0.8-3,0.2l-0.3,1.6c0.6,0.3,1.3,0.4,2,0.4c1.2,0,3.1-0.6,3.1-2.4s-2.5-2-2.5-2.8S17.1,2.7,17.9,3.1z"/>
		</g>
		<path id="Path_69" class="st2" d="M6.3,5.2L5.7,2.1C5.6,1.7,5.2,1.4,4.8,1.5H2v0.1C3,1.9,3.9,2.3,4.7,3C5.4,3.5,5.9,4.3,6.3,5.2z"
			/>
	</g>
</g>
<g id="Group_1568" transform="translate(41.311 0)">
	<path id="Rectangle_129" class="st3" d="M5.5,1.3h26.8c2.2,0,4,1.8,4,4v16.5c0,2.2-1.8,4-4,4H5.5c-2.2,0-4-1.8-4-4V5.3
		C1.5,3.1,3.3,1.3,5.5,1.3z"/>
	<g id="Group_357" transform="translate(6.598 5.579)">
		<rect id="Rectangle_82" x="9.4" y="2.8" class="st4" width="5.9" height="10.5"/>
		<path id="Path_70" class="st5" d="M9.8,8c0-2.1,0.9-4,2.6-5.3C9.4,0.5,5.2,1,3,3.9C0.7,6.8,1.2,11,4.1,13.3c2.4,1.9,5.8,1.9,8.3,0
			C10.7,12,9.8,10.1,9.8,8"/>
		<path id="Path_71" class="st6" d="M23.2,8c0,3.7-3,6.7-6.7,6.7c-1.5,0-3-0.5-4.1-1.4c2.9-2.3,3.4-6.5,1.1-9.4
			c-0.3-0.4-0.7-0.8-1.1-1.1c2.9-2.3,7.1-1.8,9.4,1.1C22.7,5.1,23.2,6.5,23.2,8 M22.5,12.2V12h0.1l0,0h-0.2l0,0h0.1V12.2L22.5,12.2z
			 M23,12.2v-0.3h-0.1l-0.1,0.2l-0.1-0.2h-0.1v0.3l0,0V12l0.1,0.2h0.1l0.1-0.2L23,12.2L23,12.2z"/>
	</g>
</g>
<g>
	<path class="st7" d="M102.8,9.2c0-0.5-0.2-0.7-0.5-0.9s-0.7-0.2-1.2-0.2h-2.2v4.1h1v-1.5h1c0.3,0,0.6,0,0.7,0.2
		c0.2,0.2,0.1,0.5,0.1,0.8v0.5h1v-0.8c0-0.3,0-0.5-0.2-0.7c-0.1-0.1-0.3-0.3-0.5-0.3C102.4,10.2,102.8,9.9,102.8,9.2z M101.5,9.8
		c-0.1,0.1-0.3,0.1-0.5,0.1h-1.2V9h1.2c0.2,0,0.4,0,0.5,0.1s0.2,0.2,0.2,0.4C101.7,9.6,101.6,9.7,101.5,9.8z"/>
	<path class="st7" d="M116.5,16h1.8v-0.9h-1.9c-1,0-1.4,0.6-1.4,1.2c0,1.3,1.1,1.2,2,1.2c0.2,0,0.3,0,0.3,0.1
		c0.1,0.1,0.1,0.2,0.1,0.3c0,0.1-0.1,0.2-0.1,0.3c-0.1,0.1-0.2,0.1-0.4,0.1H115v0.9h1.9c1,0,1.5-0.4,1.5-1.3c0-0.4-0.1-0.7-0.3-0.9
		c-0.2-0.2-0.6-0.3-1.1-0.3h-0.5c-0.1,0-0.3,0-0.4-0.1s-0.2-0.1-0.2-0.3c0-0.1,0.1-0.2,0.1-0.3C116.2,16,116.3,16,116.5,16z"/>
	<polygon class="st7" points="98.2,9 98.2,8.1 94.9,8.1 94.9,12.2 98.2,12.2 98.2,11.3 95.9,11.3 95.9,10.5 98.2,10.5 98.2,9.7 
		95.9,9.7 95.9,9 	"/>
	<path class="st7" d="M83.7,21.6c0,2.3,1.8,4.1,4.1,4.1h26.4c2.2,0,4.1-1.9,4.1-4.1v-2c-0.4,0.2-0.9,0.3-1.4,0.3h-2.5v-0.3
		c-0.3,0.2-0.8,0.3-1.3,0.3h-7.9v-1.3c0-0.2,0-0.2-0.2-0.2h-0.1v1.5h-2.6v-1.5c-0.4,0.2-0.9,0.2-1.4,0.2h-0.3v1.3h-3.2L96.6,19
		l-0.8,0.9h-5.1v-5.7h5.2l0.8,0.9l0.8-0.9h3.5c0.4,0,1.1,0.1,1.4,0.3v-0.3h3.1c0.3,0,0.9,0.1,1.3,0.3v-0.3h4.7v0.3
		c0.3-0.2,0.8-0.3,1.2-0.3h2.6v0.3c0.3-0.2,0.7-0.3,1.2-0.3h1.8V5.1V4.8c0,0-0.3-3.5-4.1-3.5H87.8c-4.1,0-4.1,3.5-4.1,4.1l0,0v4.7
		l1.2-2.8h2.5L87.7,8V7.3h3l0.7,1.4L92,7.3h9.4c0.4,0,0.8,0.1,1.1,0.3V7.3h2.6v0.3c0.4-0.2,1-0.3,1.6-0.3h3.7l0.3,0.7V7.3h2.7
		l0.4,0.7V7.3h2.7V13h-2.7l-0.5-0.9V13h-3.4l-0.4-0.9h-0.8l-0.4,0.9h-1.8c-0.7,0-1.2-0.2-1.6-0.3V13h-4v-1.3c0-0.2,0-0.2-0.1-0.2
		h-0.1V13h-8.1v-0.7L92.3,13h-1.7l-0.3-0.7V13H87l-0.3-0.9h-0.8L85.5,13h-1.7"/>
	<path class="st7" d="M94.2,12.2V8.1h-1.6l-1.2,2.7l-1.3-2.7h-1.6v3.8l-1.6-3.8h-1.4l-1.7,4.1h1l0.4-0.9h2l0.4,0.9h2V9l1.4,3.2h0.8
		L93.2,9v3.2H94.2z M85.5,10.4l0.7-1.6l0.7,1.6H85.5z"/>
	<rect x="103.3" y="8.1" class="st7" width="1" height="4.1"/>
	<polygon class="st7" points="110.7,15.9 110.7,15.1 107.5,15.1 107.5,19.1 110.7,19.1 110.7,18.3 108.4,18.3 108.4,17.5 
		110.7,17.5 110.7,16.7 108.4,16.7 108.4,15.9 	"/>
	<path class="st7" d="M100.9,15.1h-3.1l-1.2,1.3l-1.2-1.3h-3.9v4.1h3.8l1.2-1.3l1.2,1.3h1.9v-1.4h1.2c0.8,0,1.7-0.2,1.7-1.4
		C102.6,15.3,101.7,15.1,100.9,15.1z M94.9,18.3h-2.4v-0.8h2.1v-0.8h-2.1v-0.8h2.4l1.1,1.2L94.9,18.3z M98.7,18.8l-1.5-1.7l1.5-1.6
		V18.8z M100.9,17h-1.3v-1h1.3c0.3,0,0.6,0.1,0.6,0.5S101.3,17,100.9,17z"/>
	<path class="st7" d="M106.9,16.2c0-0.5-0.2-0.7-0.5-0.9s-0.7-0.2-1.2-0.2H103v4.1h1v-1.5h1c0.3,0,0.5,0,0.7,0.2s0.2,0.5,0.2,0.8
		v0.5h1v-0.8c0-0.4,0-0.5-0.1-0.8c-0.1-0.1-0.3-0.3-0.5-0.3C106.5,17.2,106.9,16.8,106.9,16.2z M105.7,16.8
		c-0.1,0.1-0.3,0.1-0.5,0.1H104V16h1.2c0.2,0,0.3,0,0.5,0.1c0.1,0.1,0.2,0.2,0.2,0.3S105.8,16.7,105.7,16.8z"/>
	<path class="st7" d="M106.8,9h0.9V8.1h-0.9c-0.7,0-1.2,0.1-1.5,0.5c-0.4,0.4-0.5,1-0.5,1.6c0,0.7,0.2,1.2,0.5,1.5s1,0.5,1.4,0.5
		h1.1l0.4-0.9h2l0.4,0.9h2v-3l1.8,3h1.4V8.1h-1v2.8l-1.7-2.8h-1.5v3.8L110,8.1h-1.4l-1.4,3.2h-0.4c-0.3,0-0.5-0.1-0.7-0.2
		c-0.2-0.2-0.3-0.5-0.3-1c0-0.4,0.1-0.8,0.3-0.9C106.3,9,106.5,9,106.8,9z M109.2,8.8l0.7,1.6h-1.3L109.2,8.8z"/>
	<path class="st7" d="M113.2,18.3h-1.9v0.9h1.9c1,0,1.5-0.4,1.5-1.3c0-0.4-0.1-0.7-0.3-0.9c-0.2-0.2-0.6-0.3-1.1-0.3h-0.5
		c-0.1,0-0.3,0-0.4-0.1s-0.2-0.1-0.2-0.3c0-0.1,0-0.2,0.1-0.3c0.1-0.1,0.2-0.1,0.4-0.1h1.8V15h-1.9c-1,0-1.4,0.6-1.4,1.2
		c0,1.3,1.1,1.2,2,1.2c0.2,0,0.3,0,0.3,0.1c0.1,0.1,0.1,0.2,0.1,0.3c0,0.1-0.1,0.2-0.1,0.3C113.5,18.2,113.4,18.3,113.2,18.3z"/>
</g>
<g>
	<path class="st8" d="M205,1.5h-32c-1.7,0-3,1.3-3,3v18c0,1.7,1.3,3,3,3h32c1.7,0,3-1.3,3-3v-18C208,2.8,206.7,1.5,205,1.5z"/>
	<g id="GPay-Brand-Mark">
		<g id="GPay">
			<g id="Pay" transform="translate(12.133 0.636)">
				<path id="Fill-1" class="st1" d="M176.9,9.9v2.8h1.7c0.4,0,0.7-0.1,1-0.4c0.5-0.6,0.5-1.4,0-2c-0.3-0.3-0.6-0.4-1-0.4L176.9,9.9
					L176.9,9.9z M176.9,13.6v3.2h-1v-8h2.7c0.7,0,1.3,0.2,1.8,0.7c0.9,0.9,1,2.3,0.1,3.2l-0.1,0.1c-0.5,0.5-1.1,0.7-1.8,0.7
					L176.9,13.6L176.9,13.6z"/>
				<path id="Fill-3" class="st1" d="M182.1,15.2c0,0.3,0.1,0.5,0.3,0.7c0.2,0.2,0.5,0.3,0.8,0.3c0.4,0,0.8-0.2,1.2-0.5
					c0.3-0.3,0.5-0.7,0.5-1.1c-0.4-0.3-0.9-0.4-1.3-0.4c-0.4,0-0.7,0.1-1,0.3C182.3,14.6,182.1,14.9,182.1,15.2 M183.5,11.2
					c0.7,0,1.3,0.2,1.8,0.6c0.4,0.4,0.7,1,0.7,1.7v3.4h-1v-0.8l0,0c-0.4,0.6-1,0.9-1.7,0.9c-0.6,0-1.1-0.2-1.5-0.5s-0.6-0.8-0.6-1.3
					s0.2-1,0.6-1.3c0.5-0.4,1.1-0.5,1.7-0.5c0.5,0,1,0.1,1.5,0.3v-0.2c0-0.3-0.2-0.7-0.4-0.9c-0.3-0.2-0.6-0.4-1-0.4
					c-0.5,0-1.1,0.3-1.4,0.7l-0.9-0.6C181.7,11.6,182.6,11.2,183.5,11.2"/>
				<g id="Group-7" transform="translate(10.176 2.511)">
					<path id="Fill-5" class="st1" d="M181.3,8.9l-3.4,7.8h-1.1l1.3-2.7l-2.2-5.1h1.1l1.6,3.9l0,0l1.6-3.9L181.3,8.9z"/>
				</g>
			</g>
			<g id="G">
				<path id="Fill-8" class="st9" d="M184.9,13.6c0-0.3,0-0.6-0.1-0.9h-4.3v1.8h2.5c-0.1,0.6-0.4,1.1-0.9,1.4V17h1.5
					C184.4,16.1,184.9,14.8,184.9,13.6"/>
				<path id="Fill-10" class="st10" d="M180.5,18c1.1,0,2.2-0.4,3-1.1l-1.5-1.1c-1.3,0.8-3,0.5-3.8-0.8c-0.1-0.2-0.2-0.4-0.3-0.6
					h-1.5v1.2C177.1,17.1,178.7,18.1,180.5,18"/>
				<path id="Fill-12" class="st11" d="M177.9,14.4c-0.2-0.6-0.2-1.2,0-1.8v-1.2h-1.5c-0.6,1.3-0.6,2.8,0,4.1L177.9,14.4z"/>
				<path id="Fill-14" class="st12" d="M180.5,10.7c0.7,0,1.3,0.2,1.8,0.7l0,0l1.3-1.3c-0.8-0.8-1.9-1.2-3.1-1.2
					c-1.7,0-3.3,1-4.1,2.5l1.5,1.2C178.3,11.5,179.3,10.7,180.5,10.7"/>
			</g>
		</g>
	</g>
</g>
<g>
	<path class="st8" d="M160.1,1.5h-32c-1.7,0-3,1.3-3,3v18c0,1.7,1.3,3,3,3h32c1.7,0,3-1.3,3-3v-18C163.1,2.8,161.7,1.5,160.1,1.5z"
		/>
	<g id="Group_671" transform="translate(0 0)">
		<g id="Group_670" transform="translate(6.958 8.139)">
			<g id="Group_668" transform="translate(0 0)">
				<path id="Path_323" class="st1" d="M132.7,3c-0.1,0.1-0.2,0.2-0.2,0.2c-0.7,0.6-0.8,1.7-0.2,2.5c0.2,0.2,0.4,0.4,0.6,0.5h0.1
					c0,0.1-0.1,0.2-0.1,0.3c-0.2,0.5-0.5,1-0.9,1.4c-0.1,0.1-0.2,0.2-0.2,0.2c-0.3,0.2-0.6,0.3-0.9,0.2c-0.2-0.1-0.4-0.1-0.5-0.2
					C130.2,8,130,8,129.8,8s-0.5,0.1-0.7,0.1c-0.2,0.1-0.3,0.1-0.5,0.2c-0.3,0.1-0.5,0-0.7-0.2c-0.2-0.2-0.4-0.4-0.6-0.6
					c-0.4-0.5-0.7-1.2-0.9-1.8s-0.2-1.2-0.1-1.8c0.1-0.5,0.3-1,0.6-1.4c0.4-0.4,0.9-0.6,1.4-0.5c0.3,0,0.5,0.1,0.8,0.2
					c0.1,0,0.2,0.1,0.3,0.1c0.2,0,0.3,0,0.5,0c0.2-0.1,0.4-0.1,0.6-0.2c0.3-0.1,0.7-0.1,1-0.1c0.4,0.1,0.8,0.3,1.1,0.6
					C132.6,2.9,132.6,2.9,132.7,3L132.7,3z"/>
				<path id="Path_324" class="st1" d="M131.1,0.4c0,0.1,0,0.2,0,0.3c0,0.5-0.2,0.9-0.6,1.2c-0.1,0.2-0.3,0.3-0.5,0.4
					c-0.2,0.1-0.4,0.1-0.5,0.1l0,0C129.4,1.4,130.1,0.5,131.1,0.4z"/>
			</g>
			<g id="Group_669" transform="translate(10.724 1.386)">
				<path id="Path_325" class="st1" d="M124.3,0.2c0.6-0.1,1.1-0.1,1.7-0.1c0.7-0.1,1.4,0.2,1.9,0.6c0.4,0.4,0.6,0.9,0.6,1.4
					s-0.2,1.1-0.5,1.5c-0.6,0.5-1.3,0.8-2.1,0.8c-0.2,0-0.5,0-0.7-0.1V7h-0.9V0.2z M125.2,3.6c0.2,0.1,0.5,0.1,0.7,0.1
					c1.1,0,1.7-0.5,1.7-1.5c0-0.9-0.6-1.3-1.6-1.3c-0.3,0-0.6,0-0.8,0.1L125.2,3.6L125.2,3.6z"/>
				<path id="Path_326" class="st1" d="M131.7,7l-0.1-0.6l0,0c-0.4,0.5-0.9,0.7-1.5,0.7c-0.8,0.1-1.4-0.5-1.5-1.3V5.7
					c0-1.2,1.1-1.8,3-1.8V3.8c0.1-0.6-0.3-1.1-0.9-1.1c-0.1,0-0.2,0-0.2,0c-0.5,0-0.9,0.1-1.3,0.4L129,2.5c0.5-0.3,1-0.4,1.6-0.4
					c1.5,0,1.9,1,1.9,2v1.8c0,0.4,0,0.8,0.1,1.2L131.7,7z M131.6,4.5c-1,0-2.1,0.2-2.1,1.1c0,0.4,0.3,0.8,0.7,0.9h0.1
					c0.5,0,1-0.3,1.2-0.8c0-0.1,0-0.2,0.1-0.3V4.5z"/>
				<path id="Path_327" class="st1" d="M133.6,2.1l1.1,2.9c0.1,0.3,0.2,0.7,0.3,1l0,0c0.1-0.3,0.2-0.7,0.3-1l1-2.9h0.9l-1.3,3.5
					c-0.6,1.7-1.1,2.6-1.7,3.1c-0.3,0.3-0.7,0.5-1.1,0.6l-0.2-0.8c0.3-0.1,0.6-0.2,0.8-0.4c0.3-0.3,0.6-0.6,0.8-1
					c0-0.1,0.1-0.1,0.1-0.2s0-0.2-0.1-0.2l-1.8-4.5L133.6,2.1z"/>
			</g>
		</g>
	</g>
</g>
</svg>
