<svg width="24" height="24" viewBox="0 0 24 24" fill="none" xmlns="http://www.w3.org/2000/svg">
<path d="M21.9955 6.9615C21.7549 6.05629 21.0483 5.34588 20.1507 5.10525C18.5236 4.66602 12 4.66602 12 4.66602C12 4.66602 5.47638 4.66602 3.8493 5.10525C2.95173 5.34588 2.24513 6.05629 2.00451 6.9615C1.56909 8.60004 1.56909 12.0146 1.56909 12.0146C1.56909 12.0146 1.56909 15.4292 2.00451 17.0678C2.24513 17.973 2.95173 18.6528 3.8493 18.8934C5.47638 19.3327 12 19.3327 12 19.3327C12 19.3327 18.5236 19.3327 20.1507 18.8934C21.0483 18.6528 21.7549 17.9691 21.9955 17.0678C22.4309 15.4292 22.4309 12.0146 22.4309 12.0146C22.4309 12.0146 22.4309 8.60004 21.9955 6.9615ZM9.86874 15.116V8.91324L15.3191 12.0146L9.86874 15.116Z" fill="#CB6C1E"/>
</svg>
