<svg width="24" height="24" viewBox="0 0 24 24" fill="none" xmlns="http://www.w3.org/2000/svg">
<path fill-rule="evenodd" clip-rule="evenodd" d="M4.5 4.40625C3.11929 4.40625 2 5.52554 2 6.90625V18.1562C2 19.537 3.11929 20.6562 4.5 20.6562H19.5C20.8807 20.6562 22 19.537 22 18.1562V6.90625C22 5.52554 20.8807 4.40625 19.5 4.40625H4.5ZM18.9952 10.7285C18.6587 11.065 18.25 11.2333 17.7692 11.2333C17.2885 11.2333 16.8798 11.065 16.5433 10.7285C16.2067 10.3919 16.0385 9.98327 16.0385 9.5025C16.0385 9.02173 16.2067 8.61307 16.5433 8.27654C16.8798 7.94 17.2885 7.77173 17.7692 7.77173C18.25 7.77173 18.6587 7.94 18.9952 8.27654C19.3317 8.61307 19.5 9.02173 19.5 9.5025C19.5 9.98327 19.3317 10.3919 18.9952 10.7285ZM14.0192 11.2333L18.3462 17.0025H4.5L7.96154 12.3871L10.5577 15.8487L14.0192 11.2333Z" fill="#CB6C1E"/>
</svg>
