<svg width="24" height="24" viewBox="0 0 24 24" fill="none" xmlns="http://www.w3.org/2000/svg">
<path d="M18.3334 20.6317H13.9978C13.777 20.6317 13.5978 20.4524 13.5978 20.2317V3.76816C13.5978 3.5474 13.777 3.36816 13.9978 3.36816H18.3334C18.5542 3.36816 18.7334 3.5474 18.7334 3.76816V20.2318C18.7334 20.4528 18.5543 20.6318 18.3334 20.6318V20.6317ZM10.0023 20.6317H5.6666C5.44583 20.6317 5.2666 20.4524 5.2666 20.2317V3.76816C5.2666 3.5474 5.44583 3.36816 5.6666 3.36816H10.0023C10.223 3.36816 10.4023 3.5474 10.4023 3.76816V20.2318C10.4023 20.4528 10.223 20.6318 10.0023 20.6318V20.6317Z" fill="#CB6C1E"/>
</svg>
