<svg width="24" height="24" viewBox="0 0 24 24" fill="none" xmlns="http://www.w3.org/2000/svg">
<path d="M21.6463 7.63349C21.5601 9.46054 20.2497 11.9623 17.7067 15.1387C15.0818 18.4575 12.862 20.117 11.0431 20.117C9.91815 20.117 8.96559 19.1071 8.18544 17.0872C6.66824 11.6731 6.02171 8.50092 4.76744 8.50092C4.62089 8.50092 4.11659 8.79844 3.25024 9.38511L2.34509 8.2453C4.56917 6.34701 6.69411 4.235 8.02596 4.11766C9.53023 3.97519 10.4526 4.97671 10.8017 7.11387C12.0388 14.7196 12.5862 15.8678 14.8361 12.4232C15.6421 11.1828 16.0775 10.24 16.1378 9.59045C16.3447 7.66701 14.5947 7.79692 13.4094 8.29139C14.3577 5.27005 16.1723 3.80338 18.8489 3.88719C20.823 3.93747 21.7583 5.19043 21.6463 7.63349Z" fill="#CB6C1E"/>
</svg>
