<svg width="24" height="24" viewBox="0 0 24 24" fill="none" xmlns="http://www.w3.org/2000/svg">
<path fill-rule="evenodd" clip-rule="evenodd" d="M14.1501 8.27715C12.8085 7.51691 11.1509 7.51448 9.84629 8.27925L9.84378 8.28075C8.50562 9.08364 7.69586 10.4723 7.69586 12C7.69586 13.5679 8.50418 14.9573 9.84378 15.7611L9.84629 15.7626C11.1509 16.5274 12.8086 16.5251 14.1502 15.7649L14.1599 15.7589C15.4503 14.958 16.3041 13.5724 16.3041 12C16.3041 10.4679 15.4489 9.08279 14.16 8.2828L14.1501 8.27715ZM9.60828 12C9.60828 11.1849 10.0532 10.398 10.8064 9.94522C11.5079 9.54006 12.4422 9.53555 13.1934 9.94528C13.9131 10.4031 14.3917 11.1935 14.3917 12C14.3917 12.8506 13.9109 13.6402 13.1935 14.0966C12.4422 14.5063 11.5079 14.5018 10.8064 14.0966C10.0554 13.6452 9.60828 12.8594 9.60828 12Z" fill="#CB6C1E"/>
<path fill-rule="evenodd" clip-rule="evenodd" d="M12 1C11.4537 1 11.0438 1.47474 11.0438 1.95621V3.74763C7.18478 4.1963 4.15611 7.22208 3.70609 11.0438H1.95621C1.40989 11.0438 1 11.5185 1 12C1 12.5349 1.42127 12.9562 1.95621 12.9562H3.70578C4.15464 16.8168 7.18319 19.8454 11.0438 20.2942V22.0438C11.0438 22.5787 11.4651 23 12 23C12.4815 23 12.9562 22.5901 12.9562 22.0438V20.2939C16.7779 19.8439 19.8037 16.8152 20.2524 12.9562H22.0438C22.5253 12.9562 23 12.5463 23 12C23 11.7394 22.8726 11.5028 22.7068 11.337C22.541 11.1712 22.3044 11.0438 22.0438 11.0438H20.2521C19.8022 7.22366 16.7763 4.19777 12.9562 3.74794V1.95621C12.9562 1.69559 12.8288 1.45897 12.663 1.2932C12.4972 1.12742 12.2606 1 12 1ZM8.79805 6.47148C10.7574 5.31188 13.1988 5.31018 15.203 6.47213C17.1699 7.63667 18.4092 9.72091 18.4092 12C18.4092 14.3219 17.169 16.4056 15.2031 17.5697C13.1989 18.7317 10.7574 18.73 8.79805 17.5704L8.79587 17.5691C6.79185 16.4068 5.59076 14.3251 5.59076 12C5.59076 9.71776 6.79099 7.6356 8.79588 6.47277L8.79805 6.47148Z" fill="#CB6C1E"/>
</svg>
