<svg width="24" height="24" viewBox="0 0 24 24" fill="none" xmlns="http://www.w3.org/2000/svg">
<path d="M17.7548 4.31896C15.2089 4.24546 12.738 4.4493 10.9462 6.38388C10.4127 6.93011 9.98033 7.52805 9.71834 8.27596C9.34276 9.35506 9.26455 10.6126 9.75774 11.7041C9.89132 11.9873 10.0737 12.2657 10.3297 12.5223C10.584 12.7825 10.9145 13.0077 11.3116 13.2117C10.4536 13.6386 9.36317 13.4914 8.53488 12.9759C5.77418 11.2057 5.67999 7.01397 7.69371 4.617C7.84771 4.42859 8.01722 4.23806 8.18746 4.0642C9.41501 2.79299 11.1624 1.97569 12.9443 2.00055C14.7675 2.01316 16.6658 2.84623 17.7548 4.31896Z" fill="#CB6C1E"/>
<path d="M6.38387 13.7205C4.44929 11.9286 4.24545 9.45776 4.31895 6.91184C2.84622 8.00087 2.01315 9.89915 2.00055 11.7224C1.97568 13.5043 2.79299 15.2516 4.06419 16.4792C4.23805 16.6494 4.42858 16.8189 4.61699 16.9729C7.01396 18.9867 11.2057 18.8925 12.9759 16.1318C13.4914 15.3035 13.6386 14.213 13.2117 13.355C13.0077 13.7521 12.7825 14.0827 12.5223 14.337C12.2657 14.593 11.9873 14.7753 11.7041 14.9089C10.6126 15.4021 9.35505 15.3239 8.27595 14.9483C7.52804 14.6863 6.93011 14.254 6.38387 13.7205Z" fill="#CB6C1E"/>
<path d="M13.7195 18.2828C11.9277 20.2174 9.45681 20.4212 6.91089 20.3477C7.99992 21.8204 9.8982 22.6535 11.7215 22.6661C13.5033 22.691 15.2507 21.8737 16.4782 20.6025C16.6485 20.4286 16.818 20.2381 16.972 20.0497C18.9857 17.6527 18.8915 13.4609 16.1308 11.6908C15.3025 11.1752 14.2121 11.0281 13.3541 11.455C13.7512 11.6589 14.0817 11.8841 14.336 12.1444C14.592 12.401 14.7744 12.6794 14.908 12.9626C15.4011 14.0541 15.3229 15.3116 14.9474 16.3907C14.6854 17.1386 14.253 17.7365 13.7195 18.2828Z" fill="#CB6C1E"/>
<path d="M18.2819 10.9469C20.2165 12.7387 20.4203 15.2096 20.3468 17.7555C21.8196 16.6665 22.6526 14.7682 22.6652 12.945C22.6901 11.1631 21.8728 9.41572 20.6016 8.18816C20.4277 8.01793 20.2372 7.84842 20.0488 7.69441C17.6518 5.68069 13.4601 5.77488 11.6899 8.53559C11.1744 9.36388 11.0272 10.4543 11.4541 11.3123C11.6581 10.9152 11.8833 10.5847 12.1435 10.3304C12.4001 10.0744 12.6785 9.89203 12.9617 9.75845C14.0532 9.26526 15.3107 9.34347 16.3898 9.71904C17.1377 9.98104 17.7357 10.4134 18.2819 10.9469Z" fill="#CB6C1E"/>
</svg>
