<svg width="24" height="24" viewBox="0 0 24 24" fill="none" xmlns="http://www.w3.org/2000/svg">
<path d="M7.02991 19.7148H3.29732V7.69743H7.02991V19.7148ZM5.16161 6.05815C3.9683 6.05815 3 5.06975 3 3.87645C3 3.30316 3.22774 2.75334 3.63312 2.34796C4.0385 1.94258 4.58831 1.71484 5.16161 1.71484C5.7349 1.71484 6.28471 1.94258 6.69009 2.34796C7.09547 2.75334 7.32321 3.30316 7.32321 3.87645C7.32321 5.06975 6.35491 6.05815 5.16161 6.05815ZM20.996 19.7148H17.2714V13.8648C17.2714 12.4706 17.2433 10.6827 15.3308 10.6827C13.3902 10.6827 13.0929 12.1974 13.0929 13.7644V19.7148H9.36429V7.69743H12.9442V9.33672H12.9964C13.4946 8.39252 14.7121 7.39609 16.5281 7.39609C20.3049 7.39609 21 9.88315 21 13.1135V19.7148H20.996Z" fill="#CB6C1E"/>
</svg>
