<svg width="24" height="24" viewBox="0 0 24 24" fill="none" xmlns="http://www.w3.org/2000/svg">
<path d="M21 10.1483C19.2305 10.1521 17.5046 9.59976 16.0661 8.56931V15.7532C16.0657 17.0837 15.659 18.3824 14.9005 19.4755C14.1421 20.5687 13.0679 21.4041 11.8217 21.8702C10.5755 22.3363 9.21675 22.4108 7.92707 22.0838C6.6374 21.7567 5.47834 21.0437 4.60489 20.04C3.73144 19.0364 3.18526 17.79 3.03939 16.4675C2.89352 15.145 3.15491 13.8095 3.78861 12.6396C4.42231 11.4697 5.3981 10.5212 6.58548 9.92091C7.77287 9.32062 9.11523 9.09718 10.433 9.28047V12.8925C9.83047 12.7028 9.18337 12.7084 8.58414 12.9084C7.98491 13.1084 7.46419 13.4926 7.09633 14.0062C6.72847 14.5197 6.53227 15.1364 6.53577 15.7681C6.53926 16.3998 6.74225 17.0143 7.11577 17.5237C7.48929 18.0332 8.01422 18.4116 8.61563 18.605C9.21703 18.7984 9.86416 18.7968 10.4646 18.6004C11.065 18.4041 11.5881 18.0231 11.9591 17.5117C12.3301 17.0004 12.53 16.385 12.5304 15.7532V1.71484H16.0661C16.0641 2.01388 16.0896 2.31246 16.1424 2.60681C16.2654 3.26293 16.5208 3.88708 16.8932 4.44112C17.2656 4.99516 17.747 5.46745 18.308 5.82913C19.1067 6.35661 20.0429 6.63747 21 6.63672V10.1483Z" fill="#CB6C1E"/>
</svg>
