<svg width="24" height="24" viewBox="0 0 24 24" fill="none" xmlns="http://www.w3.org/2000/svg">
<path fill-rule="evenodd" clip-rule="evenodd" d="M4.61594 4.47348C1.44296 7.64646 1.44296 12.7909 4.61594 15.9638C7.50903 18.8569 12.0411 19.1121 15.2233 16.7294L20.5502 22.0564L21.9645 20.6421L16.6663 15.344C19.2668 12.1528 19.0801 7.44728 16.1063 4.47348C12.9333 1.30051 7.78891 1.30051 4.61594 4.47348ZM6.03015 14.5496C3.63822 12.1577 3.63822 8.27962 6.03015 5.8877C8.42208 3.49577 12.3002 3.49577 14.6921 5.8877C17.084 8.27962 17.084 12.1577 14.6921 14.5496C12.3002 16.9416 8.42208 16.9416 6.03015 14.5496Z" fill="#CB6C1E"/>
</svg>
