<svg width="24" height="24" viewBox="0 0 24 24" fill="none" xmlns="http://www.w3.org/2000/svg">
<path d="M5.95285 22.582C5.39853 22.582 4.924 22.3846 4.52925 21.9899C4.13451 21.5952 3.93713 21.1206 3.93713 20.5663V10.4877C3.93713 9.93339 4.13451 9.45886 4.52925 9.06412C4.924 8.66937 5.39853 8.472 5.95285 8.472H6.96071V6.45628C6.96071 5.06208 7.45204 3.87365 8.4347 2.89098C9.41736 1.90832 10.6058 1.41699 12 1.41699C13.3942 1.41699 14.5826 1.90832 15.5653 2.89098C16.548 3.87365 17.0393 5.06208 17.0393 6.45628V8.472H18.0471C18.6015 8.472 19.076 8.66937 19.4707 9.06412C19.8655 9.45886 20.0629 9.93339 20.0629 10.4877V20.5663C20.0629 21.1206 19.8655 21.5952 19.4707 21.9899C19.076 22.3846 18.6015 22.582 18.0471 22.582H5.95285ZM12 17.5427C12.5543 17.5427 13.0289 17.3454 13.4236 16.9506C13.8183 16.5559 14.0157 16.0813 14.0157 15.527C14.0157 14.9727 13.8183 14.4982 13.4236 14.1034C13.0289 13.7087 12.5543 13.5113 12 13.5113C11.4457 13.5113 10.9711 13.7087 10.5764 14.1034C10.1817 14.4982 9.98428 14.9727 9.98428 15.527C9.98428 16.0813 10.1817 16.5559 10.5764 16.9506C10.9711 17.3454 11.4457 17.5427 12 17.5427ZM8.97643 8.472H15.0236V6.45628C15.0236 5.6164 14.7296 4.9025 14.1417 4.31458C13.5538 3.72667 12.8399 3.43271 12 3.43271C11.1601 3.43271 10.4462 3.72667 9.8583 4.31458C9.27038 4.9025 8.97643 5.6164 8.97643 6.45628V8.472Z" fill="#CB6C1E"/>
</svg>
