<svg width="24" height="24" viewBox="0 0 24 24" fill="none" xmlns="http://www.w3.org/2000/svg">
<path d="M22 12C22 17.6623 17.4123 22.25 11.75 22.25C10.6919 22.25 9.6752 22.0888 8.71633 21.7912C9.13377 21.1093 9.75786 19.9933 9.98932 19.1047C10.1133 18.6253 10.6258 16.6662 10.6258 16.6662C10.9606 17.3027 11.936 17.8442 12.9734 17.8442C16.0649 17.8442 18.2926 15.0006 18.2926 11.4668C18.2926 8.08186 15.5276 5.54829 11.9732 5.54829C7.55081 5.54829 5.19909 8.51583 5.19909 11.752C5.19909 13.2565 6.00091 15.1287 7.27802 15.7239C7.47228 15.8148 7.57561 15.7735 7.62107 15.5875C7.65413 15.447 7.82772 14.7485 7.90625 14.4261C7.93105 14.3228 7.91865 14.2319 7.83599 14.1327C7.41855 13.616 7.07964 12.6737 7.07964 11.7933C7.07964 9.53256 8.79073 7.34617 11.7087 7.34617C14.2257 7.34617 15.9905 9.06139 15.9905 11.5164C15.9905 14.2897 14.5894 16.2116 12.7667 16.2116C11.7624 16.2116 11.006 15.3808 11.2499 14.36C11.5392 13.1407 12.0972 11.8264 12.0972 10.9461C12.0972 10.1608 11.6756 9.50363 10.7994 9.50363C9.77026 9.50363 8.94365 10.5658 8.94365 11.9917C8.94365 12.901 9.2495 13.5127 9.2495 13.5127C9.2495 13.5127 8.2369 17.8028 8.05091 18.6046C7.84425 19.4891 7.92692 20.7373 8.01371 21.5474C4.20302 20.0553 1.5 16.3439 1.5 12C1.5 6.3377 6.0877 1.75 11.75 1.75C17.4123 1.75 22 6.3377 22 12Z" fill="#CB6C1E"/>
</svg>
