<svg width="24" height="24" viewBox="0 0 24 24" fill="none" xmlns="http://www.w3.org/2000/svg">
<path d="M11.5001 2C9.45301 2.05886 7.51386 2.92778 6.10814 4.41597C4.70241 5.90428 3.94501 7.89073 4.00311 9.9369C4.00311 13.0674 7.83643 18.8211 10.0196 21.8391C10.3552 22.3258 10.9087 22.6157 11.5 22.6157C12.0913 22.6157 12.6448 22.3258 12.9804 21.8391C15.1645 18.8125 18.9969 13.0674 18.9969 9.9369C19.0549 7.89073 18.2976 5.90416 16.8919 4.41597C15.4862 2.92767 13.5472 2.05885 11.4999 2H11.5001ZM11.5001 11.9147C9.90462 11.869 8.64631 10.5397 8.68867 8.94427C8.66583 8.17551 8.94961 7.43048 9.47676 6.87168C10.0039 6.31203 10.7322 5.98607 11.5001 5.9641C12.2679 5.98607 12.9963 6.31201 13.5234 6.87168C14.0505 7.43044 14.3343 8.17548 14.3115 8.94427C14.3536 10.5398 13.0955 11.8691 11.5 11.9147H11.5001Z" fill="#CB6C1E"/>
</svg>
