<svg width="24" height="24" viewBox="0 0 24 24" fill="none" xmlns="http://www.w3.org/2000/svg">
<path d="M20.4615 10.0769C21.1667 10.0769 21.766 9.83013 22.2596 9.33654C22.7532 8.84295 23 8.24359 23 7.53846C23 6.83333 22.7532 6.23397 22.2596 5.74038C21.766 5.24679 21.1667 5 20.4615 5C19.7564 5 19.1571 5.24679 18.6635 5.74038C18.1699 6.23397 17.9231 6.83333 17.9231 7.53846C17.9231 8.24359 18.1699 8.84295 18.6635 9.33654C19.1571 9.83013 19.7564 10.0769 20.4615 10.0769Z" fill="#CB6C1E"/>
<path d="M21.3077 18.5385L14.9615 10.0769L9.88462 16.8462L6.07692 11.7692L1 18.5385H21.3077Z" fill="#CB6C1E"/>
</svg>
