<svg width="24" height="24" viewBox="0 0 24 24" fill="none" xmlns="http://www.w3.org/2000/svg">
<path d="M11.5493 20C9.31598 20 7.42432 19.225 5.87432 17.675C4.32432 16.125 3.54932 14.2333 3.54932 12C3.54932 9.76667 4.32432 7.875 5.87432 6.325C7.42432 4.775 9.31598 4 11.5493 4C12.6993 4 13.7993 4.2375 14.8493 4.7125C15.8993 5.1875 16.7993 5.86667 17.5493 6.75V4H19.5493V11H12.5493V9H16.7493C16.216 8.06667 15.4868 7.33333 14.5618 6.8C13.6368 6.26667 12.6326 6 11.5493 6C9.88265 6 8.46598 6.58333 7.29932 7.75C6.13265 8.91667 5.54932 10.3333 5.54932 12C5.54932 13.6667 6.13265 15.0833 7.29932 16.25C8.46598 17.4167 9.88265 18 11.5493 18C12.8326 18 13.991 17.6333 15.0243 16.9C16.0576 16.1667 16.7826 15.2 17.1993 14H19.2993C18.8327 15.7667 17.8827 17.2083 16.4493 18.325C15.016 19.4417 13.3826 20 11.5493 20Z" fill="#CB6C1E"/>
</svg>
